<svg xmlns="http://www.w3.org/2000/svg" viewBox="0 0 1152.00 602.00" width="1152" height="602" fill="none">
  <g transform="translate(40.00 40.00)">
    <path d="M83.600 404.400L83.600 404.400Q79.600 404.400 76.600 403.000Q73.600 401.600 73.600 399.200L73.600 399.200Q73.600 396.000 76.400 394.000Q79.200 392.000 84.400 391.200L84.400 391.200Q99.600 388.000 106.800 382.200Q114 376.400 114 363.200L114 363.200L114 201.200Q114 184.800 113.200 176.400Q112.400 168.000 111 165.000Q109.600 162.000 106.800 161.600L106.800 161.600Q102.800 160.000 96.800 159.600Q90.800 159.200 85.200 159.200L85.200 159.200L72.800 159.200Q61.200 159.200 50.400 164.600Q39.600 170.000 33.600 179.200L33.600 179.200Q32 181.600 28.600 186.000Q25.200 190.400 21.400 194.000Q17.600 197.600 13.600 197.600L13.600 197.600Q10.800 197.600 9.800 195.600Q8.800 193.600 8.800 191.200L8.800 191.200Q8.800 186.400 11.200 181.600L11.200 181.600Q18 168.000 21.400 157.800Q24.800 147.600 26 133.600L26 133.600Q26.800 127.600 29.400 125.800Q32 124.000 34.800 124.000L34.800 124.000Q37.200 124.000 40.600 129.000Q44 134.000 46.800 137.200L46.800 137.200Q50.400 140.800 59.600 142.600Q68.800 144.400 75.200 144.400L75.200 144.400L222.800 144.000Q234 144.000 241.600 142.200Q249.200 140.400 253.600 138.400L253.600 138.400Q259.600 134.800 263.200 131.000Q266.800 127.200 271.600 127.200L271.600 127.200Q273.600 127.200 274.600 129.400Q275.600 131.600 275.600 134.800L275.600 134.800Q275.600 136.800 275.200 139.400Q274.800 142.000 274.400 144.000L274.400 144.000Q272.800 151.600 271.200 157.400Q269.600 163.200 268.600 168.200Q267.600 173.200 267.600 179.600L267.600 179.600L267.600 186.400Q267.600 192.000 266 196.000Q264.400 200.000 260.800 200.000L260.800 200.000Q257.600 200.000 255.400 196.200Q253.200 192.400 250.800 184.400L250.800 184.400Q247.200 171.600 238.800 165.400Q230.400 159.200 212.400 159.200L212.400 159.200L185.200 159.200Q177.600 159.200 173.400 162.000Q169.200 164.800 167.400 174.200Q165.600 183.600 165.600 203.200L165.600 203.200L165.600 362.800Q165.600 375.600 172.800 381.400Q180 387.200 195.600 391.200L195.600 391.200Q200.400 392.400 203.200 394.000Q206 395.600 206 398.800L206 398.800Q206 401.600 203.400 402.800Q200.800 404.000 196.800 404.000L196.800 404.000Q187.200 404.000 177.600 403.600Q168 403.200 158.600 402.800Q149.200 402.400 140.400 402.400L140.400 402.400Q131.600 402.400 122.200 402.800Q112.800 403.200 103 403.800Q93.200 404.400 83.600 404.400Z M322.800 408.400L322.800 408.400Q313.200 408.400 304.600 403.200Q296 398.000 290.800 389.600Q285.600 381.200 285.600 372.400L285.600 372.400Q285.600 358.800 293.600 350.200Q301.600 341.600 317.600 334.800L317.600 334.800L354.800 318.800Q362.800 315.600 364.600 312.800Q366.400 310.000 366.400 302.400L366.400 302.400L367.200 278.800Q367.600 267.600 362.600 260.800Q357.600 254.000 347.600 254.000L347.600 254.000Q342.400 254.000 336.800 256.000Q331.200 258.000 328 261.200L328 261.200Q326.400 262.800 325.800 265.400Q325.200 268.000 325.200 270.400L325.200 270.400Q325.200 272.400 325.400 275.400Q325.600 278.400 325.600 280.800L325.600 280.800Q325.600 283.200 319.600 286.800Q313.600 290.400 306 293.200Q298.400 296.000 293.200 296.000L293.200 296.000Q290.400 296.000 288.800 294.000Q287.200 292.000 287.200 289.200L287.200 289.200Q287.200 282.800 291.400 276.200Q295.600 269.600 304.800 262.000L304.800 262.000Q314.800 253.600 326.800 247.000Q338.800 240.400 350.200 236.400Q361.600 232.400 370 232.400L370 232.400Q389.200 232.400 400.800 245.000Q412.400 257.600 412 278.000L412 278.000L410 363.600Q409.600 372.400 413.400 378.400Q417.200 384.400 422.800 384.400L422.800 384.400Q431.200 384.400 436.400 379.600L436.400 379.600Q438 378.000 439.200 378.000L439.200 378.000Q441.200 378.000 442.600 379.400Q444 380.800 444 382.800L444 382.800Q444 387.200 437.600 393.600L437.600 393.600Q430.400 400.800 422.200 404.600Q414 408.400 406 408.400L406 408.400Q384.800 408.400 371.600 386.400L371.600 386.400L370.400 386.400Q357.200 398.000 346.200 403.200Q335.200 408.400 322.800 408.400ZM344.800 384.400L344.800 384.400Q350.400 384.400 354.400 382.600Q358.400 380.800 361.200 377.600L361.200 377.600Q362.800 375.600 363.800 372.800Q364.800 370.000 365.200 364.800L365.200 364.800L366 339.200Q366.400 335.200 365.200 333.800Q364 332.400 362.400 332.400L362.400 332.400Q361.600 332.400 360 332.600Q358.400 332.800 356.400 334.000L356.400 334.000Q341.600 340.000 335.200 346.800Q328.800 353.600 328.800 364.400L328.800 364.400Q328.800 375.200 334 379.800Q339.200 384.400 344.800 384.400Z M524.400 408.400L524.400 408.400Q500.400 408.400 488 395.600Q475.600 382.800 475.600 358.400L475.600 358.400L475.600 266.000Q475.600 262.800 473 261.200Q470.400 259.600 462.800 259.200L462.800 259.200L458.400 259.200Q456 259.200 454.400 255.400Q452.800 251.600 452.800 248.000L452.800 248.000Q452.800 247.200 453.400 245.800Q454 244.400 455.200 244.000L455.200 244.000Q464.400 240.000 474 233.000Q483.600 226.000 492 218.600Q500.400 211.200 506 206.000L506 206.000Q508.800 204.000 510.600 202.400Q512.400 200.800 514.800 200.800L514.800 200.800Q518 200.800 519.800 202.200Q521.600 203.600 520.800 207.600L520.800 207.600L518.400 229.600Q518 234.400 520.600 236.000Q523.200 237.600 528 237.600L528 237.600L575.200 237.600Q576.400 237.600 577.600 240.400Q578.800 243.200 578.800 246.000L578.800 246.000Q578.800 251.200 577.400 255.600Q576 260.000 574 260.000L574 260.000L536 260.000Q526.800 260.000 523.400 262.000Q520 264.000 520 270.400L520 270.400L520 347.200Q520 364.800 526.800 373.800Q533.600 382.800 546 382.800L546 382.800Q557.200 382.800 563 380.800Q568.800 378.800 573.600 376.000L573.600 376.000Q574.800 375.200 575.600 375.200L575.600 375.200Q577.600 375.200 578.600 377.600Q579.600 380.000 579.600 382.800L579.600 382.800Q579.600 384.800 571.800 391.200Q564 397.600 551.400 403.000Q538.800 408.400 524.400 408.400Z M630.800 408.400L630.800 408.400Q621.200 408.400 612.600 403.200Q604 398.000 598.800 389.600Q593.600 381.200 593.600 372.400L593.600 372.400Q593.600 358.800 601.600 350.200Q609.600 341.600 625.600 334.800L625.600 334.800L662.800 318.800Q670.800 315.600 672.600 312.800Q674.400 310.000 674.400 302.400L674.400 302.400L675.200 278.800Q675.600 267.600 670.600 260.800Q665.600 254.000 655.600 254.000L655.600 254.000Q650.400 254.000 644.800 256.000Q639.200 258.000 636 261.200L636 261.200Q634.400 262.800 633.800 265.400Q633.200 268.000 633.200 270.400L633.200 270.400Q633.200 272.400 633.400 275.400Q633.600 278.400 633.600 280.800L633.600 280.800Q633.600 283.200 627.600 286.800Q621.600 290.400 614 293.200Q606.400 296.000 601.200 296.000L601.200 296.000Q598.400 296.000 596.800 294.000Q595.200 292.000 595.200 289.200L595.200 289.200Q595.200 282.800 599.400 276.200Q603.600 269.600 612.800 262.000L612.800 262.000Q622.800 253.600 634.800 247.000Q646.800 240.400 658.200 236.400Q669.600 232.400 678 232.400L678 232.400Q697.200 232.400 708.800 245.000Q720.400 257.600 720 278.000L720 278.000L718 363.600Q717.600 372.400 721.400 378.400Q725.200 384.400 730.800 384.400L730.800 384.400Q739.200 384.400 744.400 379.600L744.400 379.600Q746 378.000 747.200 378.000L747.200 378.000Q749.200 378.000 750.600 379.400Q752 380.800 752 382.800L752 382.800Q752 387.200 745.600 393.600L745.600 393.600Q738.400 400.800 730.200 404.600Q722 408.400 714 408.400L714 408.400Q692.800 408.400 679.600 386.400L679.600 386.400L678.400 386.400Q665.200 398.000 654.200 403.200Q643.200 408.400 630.800 408.400ZM652.800 384.400L652.800 384.400Q658.400 384.400 662.400 382.600Q666.400 380.800 669.200 377.600L669.200 377.600Q670.800 375.600 671.800 372.800Q672.800 370.000 673.200 364.800L673.200 364.800L674 339.200Q674.400 335.200 673.200 333.800Q672 332.400 670.400 332.400L670.400 332.400Q669.600 332.400 668 332.600Q666.400 332.800 664.400 334.000L664.400 334.000Q649.600 340.000 643.200 346.800Q636.800 353.600 636.800 364.400L636.800 364.400Q636.800 375.200 642 379.800Q647.200 384.400 652.800 384.400Z M766.400 404.000L766.400 404.000Q763.200 404.000 760.800 402.600Q758.400 401.200 758.400 398.800L758.400 398.800Q758.400 395.600 761 394.000Q763.600 392.400 767.600 391.200L767.600 391.200Q776 388.800 779.400 385.400Q782.800 382.000 782.800 376.000L782.800 376.000L782.800 286.000Q782.800 276.800 780.200 270.600Q777.600 264.400 769.200 262.400L769.200 262.400Q767.600 261.600 766 260.200Q764.400 258.800 764.400 256.000L764.400 256.000Q764.400 250.800 768.800 249.600L768.800 249.600Q780.800 246.400 794.800 241.000Q808.800 235.600 818.400 230.400L818.400 230.400Q820.400 229.200 822.800 228.000Q825.200 226.800 826.400 226.800L826.400 226.800Q829.600 226.800 829.600 230.800L829.600 230.800Q829.600 232.400 829.400 238.000Q829.200 243.600 829 250.200Q828.800 256.800 828.400 262.000L828.400 262.000Q828.400 264.400 829.600 264.400L829.600 264.400Q836 256.000 844 248.800Q852 241.600 861 236.800Q870 232.000 879.200 232.000L879.200 232.000Q890.800 232.000 896.600 236.800Q902.400 241.600 902.400 248.800L902.400 248.800Q902.400 254.400 899.400 260.800Q896.400 267.200 891.800 271.800Q887.200 276.400 881.600 276.400L881.600 276.400Q878.400 276.400 874.800 275.000Q871.200 273.600 867.600 271.600L867.600 271.600Q864 270.000 860.200 268.400Q856.400 266.800 853.200 266.800L853.200 266.800Q843.200 266.800 835.200 274.200Q827.200 281.600 827.200 303.200L827.200 303.200L827.200 373.600Q827.200 380.800 832.400 384.600Q837.600 388.400 848.400 391.600L848.400 391.600Q852.800 392.800 855 394.200Q857.200 395.600 857.200 398.800L857.200 398.800Q857.200 404.000 850 404.000L850 404.000Q838 404.000 827.400 403.000Q816.800 402.000 806.400 402.000L806.400 402.000Q799.600 402.000 793.400 402.400Q787.200 402.800 780.800 403.400Q774.400 404.000 766.400 404.000Z M952 408.400L952 408.400Q942.400 408.400 933.800 403.200Q925.200 398.000 920 389.600Q914.800 381.200 914.800 372.400L914.800 372.400Q914.800 358.800 922.800 350.200Q930.800 341.600 946.800 334.800L946.800 334.800L984 318.800Q992 315.600 993.800 312.800Q995.600 310.000 995.600 302.400L995.600 302.400L996.400 278.800Q996.800 267.600 991.800 260.800Q986.800 254.000 976.800 254.000L976.800 254.000Q971.600 254.000 966 256.000Q960.400 258.000 957.200 261.200L957.200 261.200Q955.600 262.800 955 265.400Q954.400 268.000 954.400 270.400L954.400 270.400Q954.400 272.400 954.600 275.400Q954.800 278.400 954.800 280.800L954.800 280.800Q954.800 283.200 948.800 286.800Q942.800 290.400 935.200 293.200Q927.600 296.000 922.400 296.000L922.400 296.000Q919.600 296.000 918 294.000Q916.400 292.000 916.400 289.200L916.400 289.200Q916.400 282.800 920.600 276.200Q924.800 269.600 934 262.000L934 262.000Q944 253.600 956 247.000Q968 240.400 979.400 236.400Q990.800 232.400 999.200 232.400L999.200 232.400Q1018.400 232.400 1030 245.000Q1041.600 257.600 1041.200 278.000L1041.200 278.000L1039.200 363.600Q1038.800 372.400 1042.600 378.400Q1046.400 384.400 1052 384.400L1052 384.400Q1060.400 384.400 1065.600 379.600L1065.600 379.600Q1067.200 378.000 1068.400 378.000L1068.400 378.000Q1070.400 378.000 1071.800 379.400Q1073.200 380.800 1073.200 382.800L1073.200 382.800Q1073.200 387.200 1066.800 393.600L1066.800 393.600Q1059.600 400.800 1051.400 404.600Q1043.200 408.400 1035.200 408.400L1035.200 408.400Q1014 408.400 1000.800 386.400L1000.800 386.400L999.600 386.400Q986.400 398.000 975.400 403.200Q964.400 408.400 952 408.400ZM974 384.400L974 384.400Q979.600 384.400 983.600 382.600Q987.600 380.800 990.400 377.600L990.400 377.600Q992 375.600 993 372.800Q994 370.000 994.400 364.800L994.400 364.800L995.200 339.200Q995.600 335.200 994.400 333.800Q993.200 332.400 991.600 332.400L991.600 332.400Q990.800 332.400 989.200 332.600Q987.600 332.800 985.600 334.000L985.600 334.000Q970.800 340.000 964.400 346.800Q958 353.600 958 364.400L958 364.400Q958 375.200 963.200 379.800Q968.400 384.400 974 384.400Z" fill="#F2EAD8"/>
  </g>
</svg>
