<svg xmlns="http://www.w3.org/2000/svg" viewBox="0 0 2280.01 602.00" width="2280" height="602" fill="none">
  <g transform="translate(40.00 40.00)">
    <path d="M83.600 404.400L83.600 404.400Q79.600 404.400 76.600 403.000Q73.600 401.600 73.600 399.200L73.600 399.200Q73.600 396.000 76.400 394.000Q79.200 392.000 84.400 391.200L84.400 391.200Q99.600 388.000 106.800 382.200Q114 376.400 114 363.200L114 363.200L114 201.200Q114 184.800 113.200 176.400Q112.400 168.000 111 165.000Q109.600 162.000 106.800 161.600L106.800 161.600Q102.800 160.000 96.800 159.600Q90.800 159.200 85.200 159.200L85.200 159.200L72.800 159.200Q61.200 159.200 50.400 164.600Q39.600 170.000 33.600 179.200L33.600 179.200Q32 181.600 28.600 186.000Q25.200 190.400 21.400 194.000Q17.600 197.600 13.600 197.600L13.600 197.600Q10.800 197.600 9.800 195.600Q8.800 193.600 8.800 191.200L8.800 191.200Q8.800 186.400 11.200 181.600L11.200 181.600Q18 168.000 21.400 157.800Q24.800 147.600 26 133.600L26 133.600Q26.800 127.600 29.400 125.800Q32 124.000 34.800 124.000L34.800 124.000Q37.200 124.000 40.600 129.000Q44 134.000 46.800 137.200L46.800 137.200Q50.400 140.800 59.600 142.600Q68.800 144.400 75.200 144.400L75.200 144.400L222.800 144.000Q234 144.000 241.600 142.200Q249.200 140.400 253.600 138.400L253.600 138.400Q259.600 134.800 263.200 131.000Q266.800 127.200 271.600 127.200L271.600 127.200Q273.600 127.200 274.600 129.400Q275.600 131.600 275.600 134.800L275.600 134.800Q275.600 136.800 275.200 139.400Q274.800 142.000 274.400 144.000L274.400 144.000Q272.800 151.600 271.200 157.400Q269.600 163.200 268.600 168.200Q267.600 173.200 267.600 179.600L267.600 179.600L267.600 186.400Q267.600 192.000 266 196.000Q264.400 200.000 260.800 200.000L260.800 200.000Q257.600 200.000 255.400 196.200Q253.200 192.400 250.800 184.400L250.800 184.400Q247.200 171.600 238.800 165.400Q230.400 159.200 212.400 159.200L212.400 159.200L185.200 159.200Q177.600 159.200 173.400 162.000Q169.200 164.800 167.400 174.200Q165.600 183.600 165.600 203.200L165.600 203.200L165.600 362.800Q165.600 375.600 172.800 381.400Q180 387.200 195.600 391.200L195.600 391.200Q200.400 392.400 203.200 394.000Q206 395.600 206 398.800L206 398.800Q206 401.600 203.400 402.800Q200.800 404.000 196.800 404.000L196.800 404.000Q187.200 404.000 177.600 403.600Q168 403.200 158.600 402.800Q149.200 402.400 140.400 402.400L140.400 402.400Q131.600 402.400 122.200 402.800Q112.800 403.200 103 403.800Q93.200 404.400 83.600 404.400Z M322.800 408.400L322.800 408.400Q313.200 408.400 304.600 403.200Q296 398.000 290.800 389.600Q285.600 381.200 285.600 372.400L285.600 372.400Q285.600 358.800 293.600 350.200Q301.600 341.600 317.600 334.800L317.600 334.800L354.800 318.800Q362.800 315.600 364.600 312.800Q366.400 310.000 366.400 302.400L366.400 302.400L367.200 278.800Q367.600 267.600 362.600 260.800Q357.600 254.000 347.600 254.000L347.600 254.000Q342.400 254.000 336.800 256.000Q331.200 258.000 328 261.200L328 261.200Q326.400 262.800 325.800 265.400Q325.200 268.000 325.200 270.400L325.200 270.400Q325.200 272.400 325.400 275.400Q325.600 278.400 325.600 280.800L325.600 280.800Q325.600 283.200 319.600 286.800Q313.600 290.400 306 293.200Q298.400 296.000 293.200 296.000L293.200 296.000Q290.400 296.000 288.800 294.000Q287.200 292.000 287.200 289.200L287.200 289.200Q287.200 282.800 291.400 276.200Q295.600 269.600 304.800 262.000L304.800 262.000Q314.800 253.600 326.800 247.000Q338.800 240.400 350.200 236.400Q361.600 232.400 370 232.400L370 232.400Q389.200 232.400 400.800 245.000Q412.400 257.600 412 278.000L412 278.000L410 363.600Q409.600 372.400 413.400 378.400Q417.200 384.400 422.800 384.400L422.800 384.400Q431.200 384.400 436.400 379.600L436.400 379.600Q438 378.000 439.200 378.000L439.200 378.000Q441.200 378.000 442.600 379.400Q444 380.800 444 382.800L444 382.800Q444 387.200 437.600 393.600L437.600 393.600Q430.400 400.800 422.200 404.600Q414 408.400 406 408.400L406 408.400Q384.800 408.400 371.600 386.400L371.600 386.400L370.400 386.400Q357.200 398.000 346.200 403.200Q335.200 408.400 322.800 408.400ZM344.800 384.400L344.800 384.400Q350.400 384.400 354.400 382.600Q358.400 380.800 361.200 377.600L361.200 377.600Q362.800 375.600 363.800 372.800Q364.800 370.000 365.200 364.800L365.200 364.800L366 339.200Q366.400 335.200 365.200 333.800Q364 332.400 362.400 332.400L362.400 332.400Q361.600 332.400 360 332.600Q358.400 332.800 356.400 334.000L356.400 334.000Q341.600 340.000 335.200 346.800Q328.800 353.600 328.800 364.400L328.800 364.400Q328.800 375.200 334 379.800Q339.200 384.400 344.800 384.400Z M524.400 408.400L524.400 408.400Q500.400 408.400 488 395.600Q475.600 382.800 475.600 358.400L475.600 358.400L475.600 266.000Q475.600 262.800 473 261.200Q470.400 259.600 462.800 259.200L462.800 259.200L458.400 259.200Q456 259.200 454.400 255.400Q452.800 251.600 452.800 248.000L452.800 248.000Q452.800 247.200 453.400 245.800Q454 244.400 455.200 244.000L455.200 244.000Q464.400 240.000 474 233.000Q483.600 226.000 492 218.600Q500.400 211.200 506 206.000L506 206.000Q508.800 204.000 510.600 202.400Q512.400 200.800 514.800 200.800L514.800 200.800Q518 200.800 519.800 202.200Q521.600 203.600 520.800 207.600L520.800 207.600L518.400 229.600Q518 234.400 520.600 236.000Q523.200 237.600 528 237.600L528 237.600L575.200 237.600Q576.400 237.600 577.600 240.400Q578.800 243.200 578.800 246.000L578.800 246.000Q578.800 251.200 577.400 255.600Q576 260.000 574 260.000L574 260.000L536 260.000Q526.800 260.000 523.400 262.000Q520 264.000 520 270.400L520 270.400L520 347.200Q520 364.800 526.800 373.800Q533.600 382.800 546 382.800L546 382.800Q557.200 382.800 563 380.800Q568.800 378.800 573.600 376.000L573.600 376.000Q574.800 375.200 575.600 375.200L575.600 375.200Q577.600 375.200 578.600 377.600Q579.600 380.000 579.600 382.800L579.600 382.800Q579.600 384.800 571.800 391.200Q564 397.600 551.400 403.000Q538.800 408.400 524.400 408.400Z M630.800 408.400L630.800 408.400Q621.200 408.400 612.600 403.200Q604 398.000 598.800 389.600Q593.600 381.200 593.600 372.400L593.600 372.400Q593.600 358.800 601.600 350.200Q609.600 341.600 625.600 334.800L625.600 334.800L662.800 318.800Q670.800 315.600 672.600 312.800Q674.400 310.000 674.400 302.400L674.400 302.400L675.200 278.800Q675.600 267.600 670.600 260.800Q665.600 254.000 655.600 254.000L655.600 254.000Q650.400 254.000 644.800 256.000Q639.200 258.000 636 261.200L636 261.200Q634.400 262.800 633.800 265.400Q633.200 268.000 633.200 270.400L633.200 270.400Q633.200 272.400 633.400 275.400Q633.600 278.400 633.600 280.800L633.600 280.800Q633.600 283.200 627.600 286.800Q621.600 290.400 614 293.200Q606.400 296.000 601.200 296.000L601.200 296.000Q598.400 296.000 596.800 294.000Q595.200 292.000 595.200 289.200L595.200 289.200Q595.200 282.800 599.400 276.200Q603.600 269.600 612.800 262.000L612.800 262.000Q622.800 253.600 634.800 247.000Q646.800 240.400 658.200 236.400Q669.600 232.400 678 232.400L678 232.400Q697.200 232.400 708.800 245.000Q720.400 257.600 720 278.000L720 278.000L718 363.600Q717.600 372.400 721.400 378.400Q725.200 384.400 730.800 384.400L730.800 384.400Q739.200 384.400 744.400 379.600L744.400 379.600Q746 378.000 747.200 378.000L747.200 378.000Q749.200 378.000 750.600 379.400Q752 380.800 752 382.800L752 382.800Q752 387.200 745.600 393.600L745.600 393.600Q738.400 400.800 730.200 404.600Q722 408.400 714 408.400L714 408.400Q692.800 408.400 679.600 386.400L679.600 386.400L678.400 386.400Q665.200 398.000 654.200 403.200Q643.200 408.400 630.800 408.400ZM652.800 384.400L652.800 384.400Q658.400 384.400 662.400 382.600Q666.400 380.800 669.200 377.600L669.200 377.600Q670.800 375.600 671.800 372.800Q672.800 370.000 673.200 364.800L673.200 364.800L674 339.200Q674.400 335.200 673.200 333.800Q672 332.400 670.400 332.400L670.400 332.400Q669.600 332.400 668 332.600Q666.400 332.800 664.400 334.000L664.400 334.000Q649.600 340.000 643.200 346.800Q636.800 353.600 636.800 364.400L636.800 364.400Q636.800 375.200 642 379.800Q647.200 384.400 652.800 384.400Z M766.400 404.000L766.400 404.000Q763.200 404.000 760.800 402.600Q758.400 401.200 758.400 398.800L758.400 398.800Q758.400 395.600 761 394.000Q763.600 392.400 767.600 391.200L767.600 391.200Q776 388.800 779.400 385.400Q782.800 382.000 782.800 376.000L782.800 376.000L782.800 286.000Q782.800 276.800 780.200 270.600Q777.600 264.400 769.200 262.400L769.200 262.400Q767.600 261.600 766 260.200Q764.400 258.800 764.400 256.000L764.400 256.000Q764.400 250.800 768.800 249.600L768.800 249.600Q780.800 246.400 794.800 241.000Q808.800 235.600 818.400 230.400L818.400 230.400Q820.400 229.200 822.800 228.000Q825.200 226.800 826.400 226.800L826.400 226.800Q829.600 226.800 829.600 230.800L829.600 230.800Q829.600 232.400 829.400 238.000Q829.200 243.600 829 250.200Q828.800 256.800 828.400 262.000L828.400 262.000Q828.400 264.400 829.600 264.400L829.600 264.400Q836 256.000 844 248.800Q852 241.600 861 236.800Q870 232.000 879.200 232.000L879.200 232.000Q890.800 232.000 896.600 236.800Q902.400 241.600 902.400 248.800L902.400 248.800Q902.400 254.400 899.400 260.800Q896.400 267.200 891.800 271.800Q887.200 276.400 881.600 276.400L881.600 276.400Q878.400 276.400 874.800 275.000Q871.200 273.600 867.600 271.600L867.600 271.600Q864 270.000 860.200 268.400Q856.400 266.800 853.200 266.800L853.200 266.800Q843.200 266.800 835.200 274.200Q827.200 281.600 827.200 303.200L827.200 303.200L827.200 373.600Q827.200 380.800 832.400 384.600Q837.600 388.400 848.400 391.600L848.400 391.600Q852.800 392.800 855 394.200Q857.200 395.600 857.200 398.800L857.200 398.800Q857.200 404.000 850 404.000L850 404.000Q838 404.000 827.400 403.000Q816.800 402.000 806.400 402.000L806.400 402.000Q799.600 402.000 793.400 402.400Q787.200 402.800 780.800 403.400Q774.400 404.000 766.400 404.000Z M952 408.400L952 408.400Q942.400 408.400 933.800 403.200Q925.200 398.000 920 389.600Q914.800 381.200 914.800 372.400L914.800 372.400Q914.800 358.800 922.800 350.200Q930.800 341.600 946.800 334.800L946.800 334.800L984 318.800Q992 315.600 993.800 312.800Q995.600 310.000 995.600 302.400L995.600 302.400L996.400 278.800Q996.800 267.600 991.800 260.800Q986.800 254.000 976.800 254.000L976.800 254.000Q971.600 254.000 966 256.000Q960.400 258.000 957.200 261.200L957.200 261.200Q955.600 262.800 955 265.400Q954.400 268.000 954.400 270.400L954.400 270.400Q954.400 272.400 954.600 275.400Q954.800 278.400 954.800 280.800L954.800 280.800Q954.800 283.200 948.800 286.800Q942.800 290.400 935.200 293.200Q927.600 296.000 922.400 296.000L922.400 296.000Q919.600 296.000 918 294.000Q916.400 292.000 916.400 289.200L916.400 289.200Q916.400 282.800 920.600 276.200Q924.800 269.600 934 262.000L934 262.000Q944 253.600 956 247.000Q968 240.400 979.400 236.400Q990.800 232.400 999.200 232.400L999.200 232.400Q1018.400 232.400 1030 245.000Q1041.600 257.600 1041.200 278.000L1041.200 278.000L1039.200 363.600Q1038.800 372.400 1042.600 378.400Q1046.400 384.400 1052 384.400L1052 384.400Q1060.400 384.400 1065.600 379.600L1065.600 379.600Q1067.200 378.000 1068.400 378.000L1068.400 378.000Q1070.400 378.000 1071.800 379.400Q1073.200 380.800 1073.200 382.800L1073.200 382.800Q1073.200 387.200 1066.800 393.600L1066.800 393.600Q1059.600 400.800 1051.400 404.600Q1043.200 408.400 1035.200 408.400L1035.200 408.400Q1014 408.400 1000.800 386.400L1000.800 386.400L999.600 386.400Q986.400 398.000 975.400 403.200Q964.400 408.400 952 408.400ZM974 384.400L974 384.400Q979.600 384.400 983.600 382.600Q987.600 380.800 990.400 377.600L990.400 377.600Q992 375.600 993 372.800Q994 370.000 994.400 364.800L994.400 364.800L995.200 339.200Q995.600 335.200 994.400 333.800Q993.200 332.400 991.600 332.400L991.600 332.400Q990.800 332.400 989.200 332.600Q987.600 332.800 985.600 334.000L985.600 334.000Q970.800 340.000 964.400 346.800Q958 353.600 958 364.400L958 364.400Q958 375.200 963.200 379.800Q968.400 384.400 974 384.400Z" fill="#F2EAD8"/><path d="M1232.630 367.417L1219.915 367.417L1219.915 362.058L1251.552 362.058L1251.552 367.417L1238.892 367.417L1238.892 402.800L1232.630 402.800L1232.630 367.417Z M1274.839 402.800L1268.605 402.800L1268.605 362.058L1274.839 362.058L1274.839 379.284L1295.019 379.284L1295.019 362.058L1301.281 362.058L1301.281 402.800L1295.019 402.800L1295.019 384.644L1274.839 384.644L1274.839 402.800Z M1346.197 402.800L1320.384 402.800L1320.384 362.058L1346.033 362.058L1346.033 367.417L1326.618 367.417L1326.618 379.558L1344.638 379.558L1344.638 384.890L1326.618 384.890L1326.618 397.441L1346.197 397.441L1346.197 402.800Z  M1406.224 403.347L1406.224 403.347Q1400.946 403.347 1396.776 400.845Q1392.607 398.343 1390.214 393.654Q1387.821 388.964 1387.821 382.456L1387.821 382.456Q1387.821 375.921 1390.214 371.232Q1392.607 366.542 1396.776 364.027Q1400.946 361.511 1406.224 361.511L1406.224 361.511Q1411.501 361.511 1415.644 364.027Q1419.786 366.542 1422.179 371.232Q1424.571 375.921 1424.571 382.456L1424.571 382.456Q1424.571 388.964 1422.179 393.654Q1419.786 398.343 1415.644 400.845Q1411.501 403.347 1406.224 403.347ZM1406.224 397.659L1406.224 397.659Q1409.696 397.659 1412.444 395.923Q1415.193 394.187 1416.792 390.782Q1418.392 387.378 1418.392 382.456L1418.392 382.456Q1418.392 377.480 1416.792 374.075Q1415.193 370.671 1412.444 368.935Q1409.696 367.198 1406.224 367.198L1406.224 367.198Q1402.724 367.198 1399.962 368.948Q1397.200 370.698 1395.601 374.103Q1394.001 377.507 1394.001 382.456L1394.001 382.456Q1394.001 387.378 1395.601 390.769Q1397.200 394.159 1399.962 395.909Q1402.724 397.659 1406.224 397.659Z M1448.487 402.800L1442.253 402.800L1442.253 362.058L1456.855 362.058Q1461.558 362.058 1464.702 363.808Q1467.847 365.558 1469.405 368.538Q1470.964 371.519 1470.964 375.292L1470.964 375.292Q1470.964 379.066 1469.392 382.060Q1467.819 385.054 1464.675 386.790Q1461.530 388.527 1456.800 388.527L1456.800 388.527L1446.819 388.527L1446.819 383.249L1456.198 383.249Q1459.206 383.249 1461.065 382.210Q1462.925 381.171 1463.786 379.366Q1464.648 377.562 1464.648 375.292L1464.648 375.292Q1464.648 372.995 1463.786 371.204Q1462.925 369.413 1461.052 368.402Q1459.179 367.390 1456.144 367.390L1456.144 367.390L1448.487 367.390L1448.487 402.800Z M1514.075 402.800L1488.263 402.800L1488.263 362.058L1513.911 362.058L1513.911 367.417L1494.497 367.417L1494.497 379.558L1512.517 379.558L1512.517 384.890L1494.497 384.890L1494.497 397.441L1514.075 397.441L1514.075 402.800Z M1538.347 402.800L1532.112 402.800L1532.112 362.058L1546.714 362.058Q1551.417 362.058 1554.561 363.685Q1557.706 365.312 1559.265 368.210Q1560.823 371.109 1560.823 374.855L1560.823 374.855Q1560.823 378.628 1559.251 381.458Q1557.679 384.288 1554.534 385.847Q1551.390 387.405 1546.659 387.405L1546.659 387.405L1535.694 387.405L1535.694 382.073L1546.058 382.073Q1549.065 382.073 1550.911 381.212Q1552.757 380.351 1553.632 378.737Q1554.507 377.124 1554.507 374.855L1554.507 374.855Q1554.507 372.558 1553.632 370.890Q1552.757 369.222 1550.897 368.306Q1549.038 367.390 1546.003 367.390L1546.003 367.390L1538.347 367.390L1538.347 402.800ZM1562.354 402.800L1555.272 402.800L1545.401 384.398L1552.319 384.398L1562.354 402.800Z M1582.114 402.800L1575.360 402.800L1589.852 362.058L1597.509 362.058L1612.274 402.800L1605.520 402.800L1597.591 380.132Q1596.661 377.370 1595.554 373.624Q1594.446 369.878 1592.997 364.628L1592.997 364.628L1594.255 364.628Q1592.860 369.933 1591.753 373.720Q1590.645 377.507 1589.798 380.132L1589.798 380.132L1582.114 402.800ZM1604.399 392.054L1583.208 392.054L1583.208 386.859L1604.399 386.859L1604.399 392.054Z M1638.925 367.417L1626.210 367.417L1626.210 362.058L1657.846 362.058L1657.846 367.417L1645.186 367.417L1645.186 402.800L1638.925 402.800L1638.925 367.417Z M1691.880 403.347L1691.880 403.347Q1686.602 403.347 1682.432 400.845Q1678.262 398.343 1675.870 393.654Q1673.477 388.964 1673.477 382.456L1673.477 382.456Q1673.477 375.921 1675.870 371.232Q1678.262 366.542 1682.432 364.027Q1686.602 361.511 1691.880 361.511L1691.880 361.511Q1697.157 361.511 1701.299 364.027Q1705.442 366.542 1707.835 371.232Q1710.227 375.921 1710.227 382.456L1710.227 382.456Q1710.227 388.964 1707.835 393.654Q1705.442 398.343 1701.299 400.845Q1697.157 403.347 1691.880 403.347ZM1691.880 397.659L1691.880 397.659Q1695.352 397.659 1698.100 395.923Q1700.848 394.187 1702.448 390.782Q1704.048 387.378 1704.048 382.456L1704.048 382.456Q1704.048 377.480 1702.448 374.075Q1700.848 370.671 1698.100 368.935Q1695.352 367.198 1691.880 367.198L1691.880 367.198Q1688.380 367.198 1685.618 368.948Q1682.856 370.698 1681.256 374.103Q1679.657 377.507 1679.657 382.456L1679.657 382.456Q1679.657 387.378 1681.256 390.769Q1682.856 394.159 1685.618 395.909Q1688.380 397.659 1691.880 397.659Z M1734.143 402.800L1727.909 402.800L1727.909 362.058L1742.510 362.058Q1747.213 362.058 1750.358 363.685Q1753.503 365.312 1755.061 368.210Q1756.620 371.109 1756.620 374.855L1756.620 374.855Q1756.620 378.628 1755.047 381.458Q1753.475 384.288 1750.331 385.847Q1747.186 387.405 1742.456 387.405L1742.456 387.405L1731.491 387.405L1731.491 382.073L1741.854 382.073Q1744.862 382.073 1746.708 381.212Q1748.553 380.351 1749.428 378.737Q1750.303 377.124 1750.303 374.855L1750.303 374.855Q1750.303 372.558 1749.428 370.890Q1748.553 369.222 1746.694 368.306Q1744.835 367.390 1741.799 367.390L1741.799 367.390L1734.143 367.390L1734.143 402.800ZM1758.151 402.800L1751.069 402.800L1741.198 384.398L1748.116 384.398L1758.151 402.800Z M1780.918 378.054L1776.106 378.054L1775.422 362.058L1781.602 362.058L1780.918 378.054Z M1815.553 403.484L1815.553 403.484Q1810.987 403.484 1807.623 402.034Q1804.260 400.585 1802.360 397.892Q1800.459 395.198 1800.268 391.480L1800.268 391.480L1806.530 391.480Q1806.721 393.695 1807.965 395.144Q1809.209 396.593 1811.205 397.304Q1813.202 398.015 1815.526 398.015L1815.526 398.015Q1818.123 398.015 1820.133 397.208Q1822.143 396.402 1823.319 394.911Q1824.495 393.421 1824.495 391.452L1824.495 391.452Q1824.495 389.675 1823.469 388.540Q1822.444 387.405 1820.707 386.654Q1818.971 385.902 1816.756 385.327L1816.756 385.327L1811.998 384.015Q1806.995 382.675 1804.192 380.050Q1801.389 377.425 1801.389 373.241L1801.389 373.241Q1801.389 369.714 1803.289 367.075Q1805.190 364.437 1808.457 362.974Q1811.725 361.511 1815.827 361.511L1815.827 361.511Q1820.010 361.511 1823.196 362.974Q1826.381 364.437 1828.200 366.980Q1830.018 369.523 1830.100 372.777L1830.100 372.777L1824.030 372.777Q1823.729 369.987 1821.446 368.456Q1819.163 366.925 1815.690 366.925L1815.690 366.925Q1813.229 366.925 1811.411 367.691Q1809.592 368.456 1808.594 369.810Q1807.596 371.163 1807.596 372.886L1807.596 372.886Q1807.596 374.827 1808.786 376.017Q1809.975 377.206 1811.684 377.904Q1813.393 378.601 1814.952 379.011L1814.952 379.011L1818.916 380.050Q1820.858 380.542 1822.922 381.376Q1824.987 382.210 1826.737 383.536Q1828.487 384.862 1829.567 386.818Q1830.647 388.773 1830.647 391.534L1830.647 391.534Q1830.647 394.980 1828.870 397.687Q1827.092 400.394 1823.715 401.939Q1820.338 403.484 1815.553 403.484Z  M1890.073 403.347L1890.073 403.347Q1884.795 403.347 1880.639 400.845Q1876.483 398.343 1874.104 393.654Q1871.725 388.964 1871.725 382.456L1871.725 382.456Q1871.725 375.921 1874.104 371.232Q1876.483 366.542 1880.639 364.027Q1884.795 361.511 1890.073 361.511L1890.073 361.511Q1893.299 361.511 1896.129 362.441Q1898.959 363.370 1901.188 365.148Q1903.416 366.925 1904.879 369.468Q1906.342 372.011 1906.862 375.237L1906.862 375.237L1900.600 375.237Q1900.217 373.296 1899.246 371.806Q1898.276 370.316 1896.881 369.277Q1895.487 368.237 1893.764 367.718Q1892.041 367.198 1890.127 367.198L1890.127 367.198Q1886.627 367.198 1883.852 368.962Q1881.076 370.726 1879.490 374.130Q1877.905 377.534 1877.905 382.456L1877.905 382.456Q1877.905 387.378 1879.518 390.782Q1881.131 394.187 1883.893 395.923Q1886.655 397.659 1890.127 397.659L1890.127 397.659Q1892.041 397.659 1893.750 397.126Q1895.459 396.593 1896.867 395.568Q1898.276 394.542 1899.246 393.038Q1900.217 391.534 1900.600 389.620L1900.600 389.620L1906.889 389.620Q1906.424 392.628 1905.002 395.130Q1903.580 397.632 1901.365 399.491Q1899.151 401.351 1896.293 402.349Q1893.436 403.347 1890.073 403.347Z M1941.278 403.347L1941.278 403.347Q1936.000 403.347 1931.830 400.845Q1927.660 398.343 1925.268 393.654Q1922.875 388.964 1922.875 382.456L1922.875 382.456Q1922.875 375.921 1925.268 371.232Q1927.660 366.542 1931.830 364.027Q1936.000 361.511 1941.278 361.511L1941.278 361.511Q1946.555 361.511 1950.697 364.027Q1954.840 366.542 1957.233 371.232Q1959.625 375.921 1959.625 382.456L1959.625 382.456Q1959.625 388.964 1957.233 393.654Q1954.840 398.343 1950.697 400.845Q1946.555 403.347 1941.278 403.347ZM1941.278 397.659L1941.278 397.659Q1944.750 397.659 1947.498 395.923Q1950.246 394.187 1951.846 390.782Q1953.445 387.378 1953.445 382.456L1953.445 382.456Q1953.445 377.480 1951.846 374.075Q1950.246 370.671 1947.498 368.935Q1944.750 367.198 1941.278 367.198L1941.278 367.198Q1937.778 367.198 1935.016 368.948Q1932.254 370.698 1930.654 374.103Q1929.055 377.507 1929.055 382.456L1929.055 382.456Q1929.055 387.378 1930.654 390.769Q1932.254 394.159 1935.016 395.909Q1937.778 397.659 1941.278 397.659Z M1983.623 402.800L1977.307 402.800L1977.307 362.058L1984.498 362.058L1999.838 386.312Q2000.604 387.515 2001.561 389.183Q2002.518 390.851 2003.584 392.943Q2004.650 395.034 2005.690 397.495L2005.690 397.495L2004.924 397.495Q2004.678 395.171 2004.555 392.888Q2004.432 390.605 2004.377 388.609Q2004.322 386.612 2004.322 385.245L2004.322 385.245L2004.322 362.058L2010.639 362.058L2010.639 402.800L2003.420 402.800L1989.666 381.116Q1988.572 379.339 1987.520 377.534Q1986.467 375.730 1985.195 373.364Q1983.924 370.999 1982.092 367.609L1982.092 367.609L1983.076 367.609Q1983.213 370.616 1983.350 373.228Q1983.486 375.839 1983.555 377.849Q1983.623 379.859 1983.623 381.062L1983.623 381.062L1983.623 402.800Z M2043.414 403.484L2043.414 403.484Q2038.848 403.484 2035.484 402.034Q2032.121 400.585 2030.221 397.892Q2028.320 395.198 2028.129 391.480L2028.129 391.480L2034.391 391.480Q2034.582 393.695 2035.826 395.144Q2037.070 396.593 2039.066 397.304Q2041.063 398.015 2043.387 398.015L2043.387 398.015Q2045.984 398.015 2047.994 397.208Q2050.004 396.402 2051.180 394.911Q2052.355 393.421 2052.355 391.452L2052.355 391.452Q2052.355 389.675 2051.330 388.540Q2050.305 387.405 2048.568 386.654Q2046.832 385.902 2044.617 385.327L2044.617 385.327L2039.859 384.015Q2034.855 382.675 2032.053 380.050Q2029.250 377.425 2029.250 373.241L2029.250 373.241Q2029.250 369.714 2031.150 367.075Q2033.051 364.437 2036.318 362.974Q2039.586 361.511 2043.688 361.511L2043.688 361.511Q2047.871 361.511 2051.057 362.974Q2054.242 364.437 2056.061 366.980Q2057.879 369.523 2057.961 372.777L2057.961 372.777L2051.891 372.777Q2051.590 369.987 2049.307 368.456Q2047.023 366.925 2043.551 366.925L2043.551 366.925Q2041.090 366.925 2039.271 367.691Q2037.453 368.456 2036.455 369.810Q2035.457 371.163 2035.457 372.886L2035.457 372.886Q2035.457 374.827 2036.646 376.017Q2037.836 377.206 2039.545 377.904Q2041.254 378.601 2042.813 379.011L2042.813 379.011L2046.777 380.050Q2048.719 380.542 2050.783 381.376Q2052.848 382.210 2054.598 383.536Q2056.348 384.862 2057.428 386.818Q2058.508 388.773 2058.508 391.534L2058.508 391.534Q2058.508 394.980 2056.730 397.687Q2054.953 400.394 2051.576 401.939Q2048.199 403.484 2043.414 403.484Z M2092.978 403.347L2092.978 403.347Q2087.701 403.347 2083.531 400.845Q2079.361 398.343 2076.969 393.654Q2074.576 388.964 2074.576 382.456L2074.576 382.456Q2074.576 375.921 2076.969 371.232Q2079.361 366.542 2083.531 364.027Q2087.701 361.511 2092.978 361.511L2092.978 361.511Q2098.256 361.511 2102.398 364.027Q2106.541 366.542 2108.934 371.232Q2111.326 375.921 2111.326 382.456L2111.326 382.456Q2111.326 388.964 2108.934 393.654Q2106.541 398.343 2102.398 400.845Q2098.256 403.347 2092.978 403.347ZM2092.978 397.659L2092.978 397.659Q2096.451 397.659 2099.199 395.923Q2101.947 394.187 2103.547 390.782Q2105.146 387.378 2105.146 382.456L2105.146 382.456Q2105.146 377.480 2103.547 374.075Q2101.947 370.671 2099.199 368.935Q2096.451 367.198 2092.978 367.198L2092.978 367.198Q2089.478 367.198 2086.717 368.948Q2083.955 370.698 2082.355 374.103Q2080.756 377.507 2080.756 382.456L2080.756 382.456Q2080.756 387.378 2082.355 390.769Q2083.955 394.159 2086.717 395.909Q2089.478 397.659 2092.978 397.659Z M2153.699 402.800L2129.008 402.800L2129.008 362.058L2135.242 362.058L2135.242 397.441L2153.699 397.441L2153.699 402.800Z M2196.564 402.800L2170.752 402.800L2170.752 362.058L2196.400 362.058L2196.400 367.417L2176.986 367.417L2176.986 379.558L2195.006 379.558L2195.006 384.890L2176.986 384.890L2176.986 397.441L2196.564 397.441L2196.564 402.800Z" fill="#F2EAD8"/>
  </g>
</svg>
